<?xml version="1.0" standalone="no"?>
<!DOCTYPE svg PUBLIC "-//W3C//DTD SVG 20010904//EN"
 "http://www.w3.org/TR/2001/REC-SVG-20010904/DTD/svg10.dtd">
<svg version="1.0" xmlns="http://www.w3.org/2000/svg"
 width="1024.000000pt" height="1024.000000pt" viewBox="0 0 1024.000000 1024.000000"
 preserveAspectRatio="xMidYMid meet">

<g transform="translate(0.000000,1024.000000) scale(0.100000,-0.100000)"
fill="#000000" stroke="none">
<path d="M6275 8728 c-9 -36 1 -66 17 -50 8 8 8 21 1 44 l-10 33 -8 -27z"/>
<path d="M4665 8640 c-165 -4 -372 -8 -461 -9 l-160 -1 -10 -25 -9 -26 -215
-4 c-118 -2 -231 -9 -250 -14 -19 -6 -55 -11 -80 -11 -25 0 -85 -11 -135 -25
-49 -14 -106 -30 -125 -35 -19 -5 -69 -10 -110 -10 -121 0 -148 -8 -155 -41
-4 -16 -15 -31 -27 -35 -12 -3 -83 -3 -159 1 -76 4 -152 4 -168 0 -27 -6 -31
-11 -31 -41 l0 -34 -90 0 -90 0 0 -45 0 -45 -42 6 c-24 4 -47 7 -53 8 -6 1 -9
-29 -6 -76 3 -77 3 -78 -22 -78 -31 0 -77 66 -77 110 l0 30 -147 -1 c-82 0
-170 -4 -198 -7 -49 -7 -50 -8 -53 -44 -4 -45 -28 -62 -76 -53 -27 6 -38 2
-55 -16 -11 -13 -21 -28 -21 -35 0 -14 -32 -24 -82 -24 l-38 0 -1 -327 c0
-324 -5 -492 -14 -502 -3 -2 -5 13 -5 34 0 40 -12 42 -15 2 -1 -16 -8 -22 -25
-22 -28 0 -46 45 -59 145 -8 62 -9 59 -10 -52 0 -64 -5 -119 -10 -123 -6 -3
-6 -18 0 -38 10 -36 12 -206 3 -231 -3 -9 -11 -16 -17 -16 -5 0 -25 -11 -42
-25 -24 -17 -34 -34 -37 -60 -4 -33 -2 -35 23 -35 30 0 46 -14 29 -25 -5 -3
-10 -32 -10 -63 0 -31 -4 -63 -9 -70 -7 -12 -108 -18 -171 -11 -8 1 -45 1 -82
1 -66 -2 -68 -3 -68 -27 0 -14 5 -34 10 -45 33 -65 37 -60 -38 -59 -94 1 -105
0 -122 -11 -11 -7 -12 -12 -3 -18 14 -9 21 -147 7 -147 -5 1 -46 4 -91 9 -46
4 -86 7 -90 7 -5 -1 -6 -20 -5 -42 5 -51 -31 -89 -84 -89 -30 0 -34 -3 -34
-25 0 -17 6 -25 17 -25 14 0 14 -3 5 -12 -12 -12 -23 -5 -34 23 -2 4 -28 9
-58 10 l-55 4 -3 -137 -3 -137 33 -3 c33 -3 33 -3 30 -51 l-4 -49 49 4 48 3 5
-60 5 -60 37 3 c34 3 38 0 43 -25 10 -46 20 -58 56 -63 30 -4 34 -9 34 -35 0
-16 5 -33 10 -37 6 -4 -11 -8 -37 -8 -38 0 -52 -5 -77 -31 -17 -17 -31 -35
-31 -40 0 -5 -4 -9 -10 -9 -5 0 -10 -7 -10 -16 0 -11 -5 -14 -16 -10 -12 4
-14 1 -9 -14 5 -17 2 -20 -27 -21 -18 -1 -36 -1 -39 -1 -13 2 -15 -130 -9
-453 2 -96 -1 -211 -8 -265 -16 -125 -25 -446 -13 -485 30 -102 34 -144 17
-169 -17 -27 -22 -148 -10 -240 l7 -46 93 0 94 0 0 -26 c0 -14 9 -42 20 -62
10 -20 21 -45 24 -54 4 -13 16 -18 41 -18 34 0 35 -1 36 -37 1 -21 0 -48 -1
-60 -1 -19 4 -23 29 -23 29 0 30 -2 33 -47 3 -48 3 -48 38 -48 34 0 35 -1 38
-42 3 -42 3 -42 45 -45 42 -3 42 -3 39 -40 -3 -41 9 -53 49 -50 27 2 27 1 34
-73 l7 -75 48 0 48 0 -3 -237 c-2 -131 -4 -244 -4 -250 -1 -7 -12 -13 -26 -13
-25 0 -25 -1 -25 -84 0 -47 5 -97 11 -113 7 -15 15 -44 19 -63 6 -26 8 -12 9
54 0 49 3 87 6 84 3 -2 10 -54 16 -114 9 -93 14 -112 32 -126 14 -11 26 -13
32 -7 5 5 12 9 15 9 7 0 32 -47 36 -67 2 -12 -53 -33 -88 -33 -16 0 -18 -12
-18 -120 l0 -120 80 0 80 0 0 -63 c0 -59 14 -99 43 -118 15 -11 486 -22 570
-14 l77 7 0 84 0 84 80 2 c44 1 88 2 98 2 13 1 16 -6 14 -28 -3 -21 4 -36 25
-56 15 -15 38 -39 50 -54 l21 -26 1001 0 1000 0 3 -67 3 -68 47 -5 c57 -7 59
-9 67 -57 6 -35 9 -38 43 -41 35 -3 37 -5 40 -40 3 -35 5 -37 39 -40 40 -3 40
-4 57 -112 7 -43 8 -45 42 -45 31 0 35 -3 38 -27 3 -24 8 -28 36 -28 43 0 56
-16 56 -66 l0 -43 48 -3 47 -3 3 -42 c3 -40 4 -42 40 -45 36 -3 37 -4 37 -41
0 -31 3 -37 21 -37 12 0 48 -3 81 -6 l60 -7 9 54 c8 48 12 54 34 54 17 0 26 7
30 25 4 16 16 26 37 32 40 10 63 42 63 85 0 30 3 33 31 33 24 0 44 13 98 68
37 37 81 76 96 87 16 11 42 32 57 47 16 16 39 28 51 28 33 0 67 11 67 21 0 5
-7 9 -16 9 -8 0 -12 5 -9 10 3 6 22 10 41 10 36 0 38 3 35 61 -4 57 34 121
113 197 101 96 166 106 251 39 29 -23 54 -33 95 -38 100 -11 1589 3 1606 15 8
7 18 32 21 56 8 64 18 78 61 86 20 4 49 15 63 25 30 21 57 17 109 -16 58 -37
82 -70 87 -119 l5 -44 67 -7 c36 -4 163 -7 281 -8 214 -2 215 -2 213 19 -2 20
1 21 30 15 39 -9 143 1 158 16 5 5 13 35 16 66 5 54 8 58 43 74 35 16 38 21
32 48 -12 62 -9 70 23 68 17 0 39 -3 50 -5 19 -3 20 2 17 67 -2 38 -7 72 -11
75 -4 3 -7 101 -8 218 0 125 -4 217 -10 220 -5 4 -10 27 -11 52 -2 66 -23 145
-33 129 -10 -16 -11 -4 -13 129 l-2 82 33 0 33 0 0 51 c0 38 9 69 32 116 31
64 61 94 108 108 37 11 49 23 43 45 -5 18 0 20 41 20 l46 0 0 49 0 50 38 3
c36 3 37 4 40 46 3 40 5 43 30 40 26 -3 27 -1 30 44 3 42 6 47 30 50 23 3 28
8 32 43 5 38 7 40 38 37 l32 -2 0 50 0 50 61 0 62 0 -6 126 c-3 90 -9 129 -18
136 -11 7 -11 11 -1 15 9 3 12 69 12 282 0 259 -1 278 -19 293 -10 9 -28 19
-40 23 -12 3 -21 11 -21 16 0 6 -7 6 -19 0 -10 -6 -20 -8 -23 -6 -8 9 -10 -15
-18 -275 l-7 -255 1 350 c1 193 0 358 -2 368 -4 20 -24 22 -52 5 -27 -17 -35
-4 -22 39 14 45 5 57 -32 43 -15 -5 -41 -10 -58 -10 l-30 0 7 49 7 49 -61 -5
-61 -6 0 44 c0 33 3 40 12 31 7 -7 21 -12 33 -12 12 0 30 -7 41 -15 10 -8 31
-15 47 -15 17 0 27 -5 27 -15 0 -8 7 -15 15 -15 10 0 15 10 15 33 1 27 2 29
11 14 6 -10 9 -28 6 -38 -4 -15 -1 -19 11 -17 14 3 16 13 14 56 -4 50 -3 52
22 52 25 0 26 3 27 53 0 28 3 61 6 72 3 11 6 113 7 228 0 114 3 202 5 196 2
-6 14 -1 27 12 17 16 24 33 24 62 0 38 1 39 28 34 71 -14 67 -17 70 46 l3 58
50 -7 49 -7 0 55 c0 49 3 56 25 66 25 11 25 13 24 134 0 122 -8 173 -23 150
-4 -7 -19 -9 -36 -5 -22 4 -30 2 -31 -8 0 -8 -5 -3 -12 11 l-11 25 -4 -32 c-3
-33 -4 -33 -59 -33 -40 0 -54 3 -50 13 2 6 0 21 -5 32 -8 18 -8 18 -4 -2 3
-17 -1 -23 -15 -23 -14 0 -19 7 -19 25 0 20 5 25 26 25 21 0 24 4 19 20 -5 16
-2 20 14 20 12 0 21 5 21 10 0 7 -15 9 -39 5 -29 -4 -40 -2 -44 10 -5 13 5 15
63 15 44 0 70 4 70 11 0 7 -23 10 -65 7 l-65 -3 -1 40 c0 32 -2 36 -9 19 -7
-17 -15 -20 -42 -16 -43 6 -61 21 -55 47 4 24 -29 72 -53 76 -8 2 -75 -1 -147
-5 -125 -7 -132 -9 -123 -26 6 -10 10 -33 10 -50 0 -28 -2 -31 -22 -24 -31 9
-33 11 -18 29 10 12 10 18 -1 32 -11 13 -11 17 -1 20 6 3 12 10 12 18 0 8 19
14 55 17 30 3 57 7 59 9 3 3 2 30 -1 62 l-6 57 -98 0 c-81 0 -99 -3 -99 -15 0
-26 -18 -16 -24 13 -14 75 -17 164 -6 177 7 9 8 20 2 32 -5 10 -12 35 -16 55
-7 38 -29 58 -71 65 -10 2 -29 10 -42 18 -29 19 -33 19 -34 -2 0 -15 -2 -15
-9 2 -6 13 -8 -9 -8 -65 0 -57 3 -73 7 -50 l7 35 6 -45 c3 -25 3 -65 0 -90 -3
-25 -5 -74 -5 -109 0 -35 -3 -58 -7 -51 -6 9 -9 9 -12 -1 -3 -8 -8 5 -12 29
-5 26 -13 42 -22 42 -11 0 -14 17 -14 75 0 60 -3 75 -15 75 -10 0 -16 -12 -17
-37 -5 -102 -7 -180 -9 -303 -1 -127 -2 -131 -10 -65 -5 39 -7 160 -5 270 2
110 0 286 -5 390 -4 105 -8 201 -9 215 0 20 -2 22 -11 10 -7 -11 -8 -1 -3 35
4 28 10 51 15 53 5 2 8 154 9 339 l0 335 -38 -4 c-58 -8 -79 5 -87 50 -4 27
-11 38 -23 38 -9 0 -54 1 -99 2 l-83 2 0 40 c0 33 -4 40 -22 44 -25 5 -171 17
-202 17 -10 0 -29 7 -42 15 -22 15 -130 28 -296 36 l-68 4 3 -41 2 -40 -39 2
c-22 2 -43 -2 -46 -8 -4 -6 -27 -9 -51 -7 -46 4 -45 4 24 30 24 9 39 30 20 27
-19 -3 -22 3 -13 26 9 24 8 25 -24 25 -35 0 -53 19 -34 38 7 7 4 17 -9 31 -18
19 -25 20 -69 12 -27 -5 -66 -12 -87 -15 l-38 -5 6 42 7 42 -129 0 c-124 1
-252 11 -283 22 -8 4 -18 6 -21 5 -4 -1 -10 9 -13 22 -6 23 -11 24 -118 30
-62 3 -177 7 -256 9 l-142 2 0 -27 c0 -15 -7 -33 -15 -41 -8 -8 -11 -18 -7
-22 4 -5 2 -5 -5 -1 -6 3 -14 2 -18 -4 -3 -5 -22 -10 -41 -10 -25 0 -42 -7
-55 -22 l-20 -23 2 30 c4 62 2 65 -45 65 -56 0 -70 16 -64 78 l5 47 -399 2
-398 2 0 -45 0 -44 -45 0 -45 0 0 -43 c0 -24 -3 -46 -6 -49 -3 -3 -21 -2 -40
4 -22 6 -58 6 -95 0 -46 -7 -59 -6 -59 4 0 10 -13 12 -50 7 l-50 -6 0 35 c0
46 -20 62 -66 53 l-37 -6 7 50 c4 28 5 50 4 49 -2 -1 -138 -5 -303 -8z m234
-147 c-1 -10 -1 -30 0 -45 1 -26 4 -28 45 -28 44 0 45 0 48 -37 3 -35 6 -38
38 -43 31 -5 35 -9 45 -50 10 -41 14 -45 43 -46 18 -1 34 -3 35 -5 2 -2 1
-123 -1 -267 l-4 -264 -34 4 c-36 4 -39 0 -46 -87 l-3 -30 -85 -6 c-101 -7
-130 -15 -130 -36 0 -13 3 -13 16 -2 21 17 31 0 40 -68 6 -53 18 -65 42 -41
19 19 26 1 30 -72 l4 -70 20 25 c11 14 28 25 39 25 16 0 19 -7 19 -44 0 -25 5
-48 11 -52 7 -4 9 -24 7 -49 l-5 -42 44 5 45 5 -6 -54 c-3 -30 -8 -73 -12 -96
-7 -47 5 -55 47 -33 16 9 19 7 19 -13 0 -49 -32 -57 -219 -57 l-170 0 4 68 c2
37 6 75 10 85 4 9 3 17 -2 17 -17 0 -33 -24 -33 -50 0 -25 -34 -58 -44 -42 -3
4 -8 58 -12 120 -4 62 -8 112 -10 112 -14 0 -34 -15 -34 -26 0 -8 -6 -14 -14
-14 -8 0 -22 -3 -32 -7 -16 -6 -17 0 -11 75 l6 82 -32 -3 -32 -2 -3 58 -3 57
-60 0 -61 0 3 -72 c2 -40 2 -161 1 -269 l-2 -195 -157 -12 c-87 -7 -175 -15
-195 -18 l-38 -7 0 240 c0 144 -4 243 -10 249 -5 5 -13 31 -16 58 l-7 48 59
-2 c148 -4 171 -1 177 21 3 11 11 19 19 18 7 -1 22 1 33 5 11 5 26 10 33 12
19 5 17 160 -3 168 -8 3 -15 17 -15 32 0 26 0 27 -20 9 -20 -18 -20 -17 -20
28 l0 47 -115 -6 -114 -7 -3 334 c-2 184 0 338 3 342 3 4 169 12 369 18 200 5
366 12 369 14 2 3 24 5 48 5 36 0 44 -3 42 -17z m1001 3 c164 -1 268 -5 272
-11 4 -5 8 -32 8 -59 l0 -49 45 6 45 7 0 -57 0 -56 45 6 45 7 0 -50 0 -50 50
0 50 0 -2 -457 -3 -458 -41 -3 c-41 -3 -42 -3 -48 -50 -16 -124 -12 -117 -62
-114 l-44 4 0 -41 0 -40 -37 2 c-37 2 -38 1 -43 -38 -5 -39 -6 -40 -42 -37
-37 3 -38 2 -38 -33 0 -42 13 -41 -220 -20 -91 8 -198 15 -237 15 l-73 0 0 55
c0 58 -9 67 -49 46 -10 -6 -27 -7 -39 -4 -17 4 -22 14 -24 57 l-3 51 -35 -3
c-19 -2 -43 -5 -52 -8 -16 -5 -18 3 -18 61 0 57 -2 66 -16 61 -9 -3 -26 -9
-37 -11 -26 -7 -23 -58 -30 495 -3 223 -8 413 -12 423 -7 16 -3 17 44 11 l51
-7 0 62 0 61 30 0 c27 0 30 3 30 30 0 20 8 35 25 46 14 9 25 24 25 34 0 14 12
20 53 27 l52 8 -1 48 0 47 35 -6 c19 -4 155 -7 301 -8z m-1976 -57 l39 2 -6
-53 c-4 -29 -9 -115 -13 -191 -5 -93 -11 -136 -18 -134 -6 3 -9 11 -7 18 5 20
2 169 -5 202 -3 15 -10 27 -16 27 -6 0 -9 -44 -7 -125 l4 -125 -25 -4 c-14 -3
-68 -10 -120 -16 -52 -6 -129 -18 -171 -26 -41 -8 -100 -15 -131 -16 l-55 -1
-6 -121 c-3 -67 -4 -122 -3 -123 1 -1 53 6 116 17 63 10 158 21 210 25 52 3
110 8 128 11 l32 5 0 -118 c0 -65 -3 -141 -6 -169 l-6 -51 -72 -7 c-39 -3
-144 -18 -232 -32 l-162 -27 -6 -51 c-3 -28 -6 -85 -6 -127 l0 -75 63 6 c34 4
71 10 82 13 22 7 361 47 399 47 l23 0 1 -184 1 -184 -31 -6 c-17 -3 -48 -6
-69 -6 -94 0 -484 -59 -564 -85 -45 -15 -243 -55 -271 -55 -18 0 -19 15 -17
332 1 183 2 549 3 814 l0 481 104 6 c69 4 113 11 128 21 14 9 87 24 178 35 85
11 169 25 186 31 34 12 251 30 274 22 8 -2 33 -4 54 -3z m3041 -39 c33 -7 97
-22 142 -35 44 -13 128 -29 185 -35 144 -15 168 -20 168 -36 0 -20 31 -33 64
-27 l29 6 -7 -169 c-4 -93 -10 -173 -13 -178 -8 -11 -102 -2 -233 24 -58 11
-149 26 -202 33 l-98 13 0 -128 0 -128 33 0 c36 0 426 -56 431 -61 2 -2 0 -78
-3 -169 l-6 -165 -65 2 c-36 2 -135 13 -220 26 -85 13 -158 21 -161 18 -4 -3
-9 -64 -12 -136 l-6 -130 75 -2 c41 -1 139 -14 217 -28 79 -14 160 -25 180
-25 20 0 38 -4 41 -9 7 -11 9 -381 2 -388 -3 -3 -42 4 -88 15 -46 11 -121 26
-168 32 -47 6 -141 24 -210 40 -69 16 -189 40 -268 53 -79 14 -145 27 -147 29
-2 2 -7 136 -10 298 -5 203 -11 297 -19 302 -15 10 -10 191 7 238 9 25 12 131
12 389 l0 354 145 -6 c80 -3 172 -11 205 -17z m-408 -167 c-3 -10 -5 -2 -5 17
0 19 2 27 5 18 2 -10 2 -26 0 -35z m-3747 17 c0 -5 14 -10 31 -10 l30 0 -2
-784 c-1 -431 -5 -789 -9 -796 -4 -6 -72 -25 -151 -41 -79 -16 -174 -37 -211
-48 l-66 -18 -6 21 c-3 12 -6 107 -6 211 0 105 -3 234 -7 288 l-6 98 -31 -7
c-16 -3 -62 -20 -100 -36 -39 -16 -93 -32 -121 -36 l-50 -7 -3 -197 -2 -198
-53 -1 -52 -1 53 -10 52 -10 0 -121 0 -122 -102 -28 c-57 -15 -123 -32 -148
-39 -25 -6 -63 -19 -85 -29 -22 -10 -55 -22 -73 -25 l-33 -7 3 162 c2 114 0
161 -8 161 -6 0 -14 21 -18 46 -12 88 -14 84 64 84 72 0 170 17 169 28 -4 27
4 40 30 45 27 6 28 9 34 74 12 119 11 124 -20 121 -26 -3 -28 -1 -25 31 4 52
-3 63 -32 51 -16 -6 -27 -6 -31 0 -8 13 -83 33 -130 34 -38 1 -40 2 -38 31 5
68 2 714 -4 759 -7 58 1 66 74 66 46 0 56 4 87 35 21 20 45 35 59 35 13 0 34
9 47 20 16 14 37 20 70 20 26 0 62 3 79 6 l31 7 0 -317 0 -316 35 0 c18 0 57
5 85 11 42 9 50 14 50 34 0 29 16 35 91 35 l60 0 -2 316 c-2 258 1 318 12 324
7 5 43 14 80 20 36 6 88 17 115 25 58 16 184 19 184 5z m-640 -65 c0 -8 -4
-15 -10 -15 -5 0 -7 7 -4 15 4 8 8 15 10 15 2 0 4 -7 4 -15z m5865 -30 c61 -8
161 -22 224 -30 63 -8 120 -20 128 -26 7 -6 13 -24 13 -40 l0 -29 80 0 80 0 0
-50 0 -50 34 0 c19 0 37 -4 40 -9 3 -4 3 -83 -1 -176 l-6 -167 -54 6 c-102 11
-133 24 -133 56 0 14 -12 19 -65 25 -36 3 -65 11 -65 16 0 16 -55 36 -130 47
-41 6 -75 10 -77 9 -1 -1 -3 -45 -4 -97 l-2 -94 42 3 41 3 0 -57 c0 -52 2 -56
20 -50 12 4 39 4 60 0 39 -7 40 -8 40 -46 l0 -38 65 6 65 6 0 -56 0 -56 58 -3
57 -3 3 -52 3 -53 42 0 42 0 3 -306 3 -307 -42 7 c-23 4 -46 2 -53 -3 -8 -7
-24 -7 -45 -1 l-32 9 7 -45 6 -44 -51 0 -51 0 0 -45 0 -44 -32 5 c-18 3 -91
25 -163 49 -71 24 -144 46 -161 50 -17 3 -55 22 -85 41 -30 19 -65 37 -79 41
-38 8 -122 34 -147 44 -19 7 -23 16 -23 53 0 32 -5 48 -17 55 -15 8 -17 26
-15 137 1 70 4 129 7 132 3 3 5 29 5 59 l0 53 49 0 50 0 3 -42 c3 -41 4 -43
43 -50 22 -3 60 -8 84 -9 l43 -3 -4 -51 -4 -51 50 0 c28 -1 95 -9 149 -19 54
-10 100 -15 104 -12 3 4 5 43 5 88 0 45 4 93 9 107 9 24 9 25 -28 17 -80 -15
-78 -16 -75 42 4 61 -7 68 -93 58 l-55 -7 0 57 0 57 -55 -7 -55 -6 -1 28 c-1
15 -1 37 0 48 2 18 -3 20 -40 17 -24 -3 -36 -7 -29 -12 9 -6 9 -12 -1 -31 -12
-23 -12 -23 -19 -4 -4 11 -5 26 -3 33 3 6 0 12 -6 12 -6 0 -11 16 -11 36 l0
37 -25 -27 c-14 -15 -30 -24 -35 -21 -6 3 -10 51 -10 106 0 78 -3 101 -14 105
-10 4 -14 16 -11 34 3 24 0 27 -18 22 -12 -3 -27 -13 -34 -21 -10 -13 -13 -7
-14 34 -1 28 -2 57 -1 65 0 8 2 52 3 98 3 75 5 82 23 82 17 0 18 -2 7 -9 -12
-8 -13 -14 -3 -36 7 -14 12 -38 12 -53 0 -16 4 -32 9 -38 5 -5 12 -27 14 -49
3 -22 4 28 1 110 -2 83 0 156 5 163 6 9 19 11 45 7 l36 -7 0 45 0 46 53 3 52
3 -3 43 c-2 40 -1 42 25 42 16 0 78 -7 138 -15z m646 -823 c1 -40 -1 -75 -4
-79 -4 -3 -7 31 -7 77 0 101 8 103 11 2z m-3248 -263 c-4 -21 -1 -34 8 -40 10
-6 6 -9 -13 -9 -32 0 -34 9 -13 50 20 38 26 38 18 -1z m1122 -227 c-12 -12
-14 8 -7 78 l7 75 3 -74 c2 -40 0 -76 -3 -79z m-1058 91 c-3 -10 -5 -4 -5 12
0 17 2 24 5 18 2 -7 2 -21 0 -30z m308 -225 c-10 -113 0 -104 -132 -112 -144
-9 -144 -9 -132 -49 5 -18 9 -33 9 -34 0 -2 -20 -3 -45 -3 l-45 0 0 -40 0 -40
130 0 130 0 0 -70 c0 -83 7 -79 -153 -83 l-108 -2 -3 -75 c-2 -41 -4 -114 -5
-162 l-1 -88 -80 0 c-56 0 -82 4 -85 13 -2 6 -5 191 -7 409 l-3 398 205 3
c113 1 234 3 269 5 l63 2 -7 -72z m-745 -8 l0 -70 49 0 48 0 3 -182 c2 -101 3
-210 2 -243 0 -33 -1 -80 -1 -105 l-1 -46 -39 4 c-39 4 -39 4 -29 34 6 16 20
33 32 38 18 7 15 9 -15 9 l-37 1 -7 -94 -7 -94 -30 -6 c-40 -8 -258 -8 -325 0
l-53 7 0 38 c0 39 0 39 40 39 56 0 50 18 -7 22 l-48 3 -3 47 -3 47 -47 3 -47
3 -3 223 -2 222 56 0 57 0 -7 70 -6 70 32 1 c18 0 49 7 68 14 23 9 84 14 183
14 l147 1 0 -70z m-3828 -152 c5 -46 5 -48 -21 -48 -22 1 -24 2 -8 11 12 7 17
23 17 51 0 53 6 46 12 -14z m7872 -1 c5 -52 -10 -66 -16 -14 -4 34 1 71 8 64
2 -2 6 -25 8 -50z m-7781 -63 c3 -4 2 -15 -4 -25 -7 -14 -6 -19 3 -19 9 0 9
-3 0 -12 -6 -6 -26 -11 -44 -10 -18 0 -36 -5 -40 -11 -4 -7 -8 7 -8 30 0 38 3
42 28 46 47 7 58 7 65 1z m7803 -11 c15 -20 18 -34 7 -32 -22 4 -33 -3 -33
-20 0 -31 -16 -34 -75 -15 -52 16 -55 18 -55 50 l0 34 71 0 c57 0 75 -4 85
-17z m-246 -39 c13 -34 13 -71 -1 -80 -6 -3 -15 -1 -19 6 -4 7 -12 10 -18 6
-14 -8 -21 66 -8 81 18 20 36 15 46 -13z m-1952 -20 c87 -6 92 -7 92 -29 0
-52 -13 -87 -36 -95 -31 -12 -157 -13 -586 -4 l-368 7 0 68 0 68 403 -4 c221
-3 444 -8 495 -11z m-2654 -19 c3 -11 6 -39 6 -61 0 -42 0 -42 -42 -47 -36 -4
-868 -3 -904 2 -8 1 -9 14 -2 47 8 37 7 48 -3 55 -8 5 -12 9 -9 10 15 5 433
14 672 14 269 0 277 0 282 -20z m-3337 -67 c-3 -8 -6 -5 -6 6 -1 11 2 17 5 13
3 -3 4 -12 1 -19z m2339 -8 c8 0 14 -9 14 -20 0 -15 -7 -20 -25 -20 -21 0 -25
5 -25 28 0 32 13 52 18 28 2 -9 10 -16 18 -16z m6349 20 c4 -6 -6 -10 -22 -9
-25 0 -26 1 -8 9 11 5 21 9 22 9 1 1 5 -3 8 -9z m-8109 -187 c-3 -3 -17 -3
-31 1 -27 7 -36 46 -10 46 9 0 15 -9 15 -22 0 -12 2 -19 5 -16 6 6 12 57 16
133 2 28 5 8 6 -44 2 -51 2 -96 -1 -98z m7151 80 c-3 -10 -5 -4 -5 12 0 17 2
24 5 18 2 -7 2 -21 0 -30z m373 13 c42 -8 79 -21 86 -30 8 -11 21 -14 40 -11
16 3 36 1 44 -5 13 -8 13 -13 -3 -41 l-17 -31 22 6 c13 4 76 8 141 9 92 2 120
5 127 17 7 11 10 7 10 -17 0 -17 3 -39 6 -48 6 -16 -1 -16 -82 -10 -56 4 -93
12 -98 20 -8 11 -12 9 -20 -7 -6 -12 -20 -26 -31 -32 -11 -6 -23 -15 -27 -20
-5 -8 -109 -27 -115 -22 -7 6 11 105 18 100 12 -7 11 7 -1 26 -8 13 -44 15
-250 12 -220 -3 -240 -2 -240 14 0 14 8 16 50 12 45 -5 50 -3 45 12 -6 19 20
30 87 35 20 2 45 8 55 14 25 14 65 14 153 -3z m-7793 -48 c-3 -7 -5 -2 -5 12
0 14 2 19 5 13 2 -7 2 -19 0 -25z m-297 0 c0 -16 -3 -19 -11 -11 -6 6 -8 16
-5 22 11 17 16 13 16 -11z m2840 -32 c8 -2 -9 -4 -37 -5 -29 0 -53 3 -53 7 0
7 52 6 90 -2z m473 7 c-24 -2 -62 -2 -85 0 -24 2 -5 4 42 4 47 0 66 -2 43 -4z
m-2860 -20 c-23 -3 -33 -10 -36 -26 -4 -18 -5 -17 -6 6 -1 25 2 27 37 25 36
-1 36 -1 5 -5z m8297 -8 c0 -8 -4 -15 -10 -15 -5 0 -10 7 -10 15 0 8 5 15 10
15 6 0 10 -7 10 -15z m-33 -11 c-3 -3 -12 -4 -19 -1 -8 3 -5 6 6 6 11 1 17 -2
13 -5z m-121 -34 c19 -1 54 -22 54 -33 0 -4 -82 11 -86 16 -1 1 -5 13 -8 27
-6 23 -6 23 7 8 8 -10 23 -18 33 -18z m157 -17 c7 -10 -1 -13 -37 -13 -42 0
-46 2 -32 15 8 8 22 15 30 15 9 0 16 6 17 13 0 7 3 6 6 -3 3 -8 10 -21 16 -27z
m-9050 -20 c-13 -2 -33 -2 -45 0 -13 2 -3 4 22 4 25 0 35 -2 23 -4z m8967 -38
c0 -34 -1 -35 -40 -35 -38 0 -39 1 -28 20 7 11 21 20 31 20 10 0 20 7 23 15
10 24 14 18 14 -20z m-8918 -11 c2 -19 0 -37 -4 -40 -4 -3 -8 13 -8 35 0 51 6
53 12 5z m1316 -19 l-4 -35 54 0 c59 0 96 -15 89 -34 -5 -13 43 -33 93 -38 23
-3 25 -6 23 -55 l-2 -52 47 5 c67 8 88 -9 73 -60 l-10 -39 70 7 70 6 -3 -77
-3 -78 -37 -3 -38 -3 0 -60 0 -60 -45 7 -45 6 0 -51 0 -51 -34 0 -35 0 -3 -52
-3 -53 -37 3 c-36 3 -38 1 -38 -26 0 -16 -6 -35 -14 -41 -11 -9 -16 -5 -26 18
-7 18 -21 31 -33 33 -19 3 -22 11 -25 51 l-3 47 -80 0 -79 0 0 43 0 44 -145 0
-145 0 0 -44 0 -43 -45 0 -45 0 0 -51 0 -51 -47 4 c-36 2 -47 0 -45 -10 1 -8
5 -152 8 -320 3 -169 8 -314 11 -322 4 -13 6 -12 14 3 17 29 36 19 43 -23 6
-39 7 -40 46 -40 l40 0 0 -49 0 -49 99 -1 c55 -1 120 -5 145 -10 41 -8 46 -6
46 10 0 17 8 19 76 19 l77 0 -6 54 -5 54 36 -4 c20 -3 45 -7 55 -9 14 -3 17 5
17 52 l0 55 38 -7 c47 -8 64 -30 60 -77 l-3 -37 44 6 44 6 -7 -52 c-4 -28 -9
-58 -13 -67 -5 -14 0 -15 34 -10 51 9 68 -8 60 -64 -5 -40 -5 -40 28 -40 31 0
35 -3 41 -37 4 -21 8 -57 8 -81 l1 -43 -58 -5 c-32 -2 -63 -6 -68 -9 -5 -4 -9
-28 -9 -56 l0 -49 -40 0 c-26 0 -51 -8 -69 -21 -21 -16 -37 -19 -59 -15 -26 6
-29 11 -29 47 0 22 -2 41 -4 43 -9 8 -216 8 -254 0 -33 -8 -41 -15 -49 -42 -5
-19 -15 -32 -25 -32 -33 0 -41 -22 -41 -117 l0 -93 -184 0 c-101 0 -198 -3
-215 -6 -29 -6 -31 -5 -31 22 0 16 -3 40 -7 52 -5 22 -10 24 -67 20 l-61 -3 3
69 3 68 -38 -6 c-21 -4 -46 -9 -55 -12 -16 -5 -18 3 -18 71 0 72 -1 76 -22 74
-13 -1 -42 -1 -65 -1 -42 2 -43 3 -43 38 0 21 -4 33 -10 29 -5 -3 -10 -17 -10
-29 0 -13 -6 -29 -14 -35 -19 -16 -25 3 -33 95 l-6 74 -72 0 -72 0 -7 280 c-4
154 -5 284 -2 288 3 5 6 123 7 263 l3 255 55 -4 56 -4 3 37 c1 20 11 48 22 62
14 18 20 41 20 74 l0 49 45 -7 45 -6 0 73 c0 62 2 71 16 66 9 -3 27 -6 40 -6
22 0 24 -3 24 -55 0 -54 1 -55 28 -55 31 0 58 -23 64 -55 3 -18 12 -20 110
-23 116 -3 107 -8 122 61 6 24 11 28 34 25 l27 -3 3 98 c2 62 -1 97 -8 97 -5
0 -10 15 -10 33 0 43 -5 48 -41 35 -17 -6 -31 -9 -33 -7 -2 2 -7 34 -10 70
-11 104 -28 99 326 99 l300 0 -4 -35z m-1271 -11 c-3 -3 -12 -4 -19 -1 -8 3
-5 6 6 6 11 1 17 -2 13 -5z m2307 -111 c4 -35 4 -68 1 -72 -3 -5 -29 -12 -58
-16 -125 -16 -162 -35 -173 -90 -4 -21 -13 -35 -25 -38 -28 -7 -33 -33 -15
-71 9 -19 16 -43 16 -55 0 -16 6 -21 26 -21 17 0 28 -6 31 -20 5 -17 14 -20
71 -20 46 0 71 5 83 16 10 9 32 19 51 24 18 4 40 11 49 14 24 10 29 -30 29
-255 l0 -198 160 -3 160 -3 3 220 c1 121 1 277 -1 346 l-3 127 143 7 c79 3
197 5 263 3 l120 -3 2 -790 c1 -434 0 -854 -3 -932 l-6 -143 -157 0 c-86 0
-199 3 -252 6 l-96 7 -7 381 c-4 209 -9 382 -10 383 -1 2 -73 0 -158 -4 l-156
-6 -6 -46 c-4 -25 -8 -104 -10 -176 -1 -71 -6 -143 -10 -160 -6 -22 -5 -26 3
-15 8 11 10 -7 9 -70 0 -47 -3 -75 -5 -62 -5 26 -16 28 -33 7 -10 -12 -10 -35
-2 -103 5 -48 13 -95 17 -104 7 -17 -8 -18 -233 -18 l-239 0 -7 170 c-4 94 -6
509 -4 923 l3 753 49 -1 49 0 -2 88 -2 88 164 -2 165 -2 6 -64z m6486 43 c0
-8 -13 -16 -30 -18 -24 -4 -27 -2 -18 9 6 8 17 12 25 9 7 -3 13 -1 13 4 0 6 2
10 5 10 3 0 5 -6 5 -14z m-8715 -6 c28 -7 28 -8 -12 -9 -23 0 -45 4 -48 9 -7
11 16 11 60 0z m8544 -30 c35 0 61 -9 61 -21 0 -5 -7 -9 -15 -9 -18 0 -20 -20
-2 -21 6 -1 -5 -5 -26 -10 -34 -8 -40 -6 -62 19 -31 34 -34 68 -6 52 11 -5 33
-10 50 -10z m-8371 -11 c2 -5 13 -9 24 -9 22 0 22 4 -3 -100 -7 -31 -8 -29 -6
19 1 36 -2 56 -11 58 -8 3 -10 -1 -5 -14 6 -16 5 -16 -10 -5 -24 20 -70 22
-83 4 -18 -25 -44 -7 -44 31 l0 33 68 -4 c37 -3 69 -8 70 -13z m6350 -13 l162
2 0 -34 0 -34 80 0 c44 0 79 -3 78 -7 -1 -5 3 -18 10 -30 10 -19 21 -23 60
-23 58 0 69 -7 74 -45 2 -22 9 -30 23 -31 11 -1 26 -2 33 -3 15 -1 16 -81 2
-131 -10 -35 -47 -73 -89 -91 -21 -8 -23 -14 -17 -50 6 -39 5 -41 -16 -37 -13
3 -32 9 -42 13 -18 8 -19 5 -13 -39 l7 -47 -58 3 c-51 3 -58 6 -70 31 -10 21
-18 26 -33 22 -26 -9 -59 3 -59 21 0 11 -8 14 -25 12 -19 -2 -29 3 -38 22 -12
24 -17 25 -111 28 l-99 2 7 -77 c4 -43 7 -114 6 -157 l-1 -79 76 6 c82 7 81 7
88 -48 l4 -30 89 3 c49 2 101 5 116 8 l27 5 -6 -50 -6 -51 78 7 78 6 -7 -24
c-23 -82 -24 -79 35 -79 67 0 77 -6 81 -50 3 -33 5 -35 36 -32 l32 3 0 -114 0
-115 -125 6 -125 5 0 -32 c0 -28 -3 -31 -30 -31 -30 0 -30 0 -30 -56 0 -52 2
-56 30 -66 19 -6 32 -19 36 -34 6 -22 12 -24 68 -26 98 -4 148 0 159 11 20 20
27 12 27 -28 0 -58 -6 -68 -40 -63 -48 7 -63 -13 -57 -75 6 -56 -2 -73 -23
-48 -19 23 -50 19 -50 -6 0 -11 -4 -17 -10 -14 -6 4 -10 -5 -10 -19 0 -23 -4
-26 -37 -25 -42 1 -157 -16 -172 -25 -6 -4 -4 -24 6 -52 19 -57 12 -64 -67
-64 -31 0 -62 -6 -69 -12 -9 -10 -66 -13 -219 -12 -173 1 -212 3 -237 17 -16
9 -43 17 -58 17 -16 0 -26 4 -23 9 3 5 8 25 11 46 l4 37 -37 -3 c-20 -1 -58
-1 -84 0 l-48 1 0 45 0 45 -55 0 -55 0 0 95 c0 87 2 95 19 95 24 0 32 21 21
59 -10 35 -5 41 30 41 47 0 63 21 68 88 l4 60 37 6 c20 3 48 6 64 6 26 0 27
-2 27 -55 l0 -55 38 0 c20 0 67 -3 104 -6 64 -7 66 -8 58 -30 -9 -22 -6 -23
43 -28 159 -16 272 -12 225 8 -9 3 -7 9 7 21 16 13 20 31 23 115 3 55 1 111
-2 126 l-7 27 -28 -27 c-15 -14 -30 -26 -34 -26 -4 0 -7 20 -7 44 l0 44 -82 6
c-46 4 -105 7 -133 9 -46 2 -50 4 -53 28 -3 25 -5 26 -58 23 -79 -4 -84 -1
-84 63 0 47 -2 54 -17 49 -10 -3 -34 -6 -53 -8 l-35 -3 3 49 2 48 -56 -7 -57
-7 8 102 7 103 -29 -8 c-33 -8 -28 -4 -47 -40 -15 -29 -16 -23 -16 101 0 72
-3 146 -6 163 -6 28 -4 31 20 31 25 0 26 3 26 50 l0 50 41 0 42 0 -6 61 -5 61
27 -5 c15 -3 34 -7 42 -9 11 -2 13 8 10 51 l-3 54 41 -7 41 -6 0 45 c0 31 4
43 13 40 6 -2 35 -6 63 -9 l51 -6 -5 51 -5 51 94 -9 c52 -4 167 -7 257 -7z
m-2101 -198 c-4 -62 -7 -164 -7 -226 l0 -113 -295 3 -295 3 0 -138 0 -138 233
1 c127 1 242 1 255 1 22 -1 22 -1 22 -186 l0 -185 -249 0 -250 0 -3 -146 -3
-146 298 4 297 3 0 -233 c0 -177 -3 -234 -12 -237 -7 -3 -257 -6 -556 -7
l-542 -3 0 35 c0 56 10 80 33 80 12 0 63 8 115 17 65 11 96 21 100 32 3 9 14
22 24 29 15 11 18 27 18 88 0 66 -2 74 -19 74 -10 0 -21 9 -24 19 -3 12 -15
21 -33 23 -25 2 -30 8 -34 38 l-5 35 -87 -4 -88 -3 0 690 0 691 58 4 c31 2
282 4 556 5 l499 2 -6 -112z m783 60 c0 -84 10 -130 27 -124 21 8 53 -12 53
-33 0 -11 7 -22 16 -25 24 -9 97 -7 114 4 9 6 20 5 29 -3 12 -10 14 -9 8 6 -5
13 0 20 18 27 14 5 32 7 40 4 11 -5 15 1 15 19 0 13 6 39 14 57 10 24 15 28
19 16 4 -9 17 -16 30 -16 51 0 55 -13 59 -178 l3 -154 -272 0 -272 1 0 -134 0
-133 252 -1 c138 -1 252 -3 253 -4 1 -1 -1 -84 -4 -184 l-5 -183 -248 0 -249
0 0 -149 c0 -148 0 -148 23 -145 12 2 140 5 284 8 l261 5 0 -237 0 -237 -420
-2 -420 -2 4 72 3 72 -44 -3 -43 -3 4 35 4 34 -97 7 -96 7 -5 356 c-3 197 -3
560 0 809 l5 452 41 4 c23 2 166 4 319 5 l277 2 0 -52z m2762 -35 l3 -77 32
-8 c24 -6 34 -16 43 -43 11 -33 14 -35 54 -35 50 0 108 18 119 36 4 7 20 15
36 19 22 5 33 16 45 46 13 32 21 39 44 39 56 0 60 -11 64 -177 l4 -153 -273 0
-273 0 0 -134 0 -134 252 -1 c139 -1 253 -3 254 -4 1 -1 -1 -84 -4 -184 l-5
-183 -248 0 -249 0 1 -172 c1 -95 4 -184 8 -197 l6 -23 278 1 277 1 0 -165 c0
-123 -3 -167 -12 -170 -7 -3 -257 -6 -556 -7 l-542 -3 0 35 c0 75 2 76 111 90
99 13 100 14 97 39 -3 26 -4 26 -104 29 l-101 3 -5 357 c-3 196 -3 558 0 805
l5 447 318 0 318 0 3 -77z m685 -25 c-2 -18 -4 -6 -4 27 0 33 2 48 4 33 2 -15
2 -42 0 -60z m-8537 11 c0 -21 -3 -39 -7 -39 -5 0 -8 20 -8 44 0 24 3 42 8 39
4 -2 7 -22 7 -44z m-40 -31 c0 -4 -13 -6 -30 -5 -16 1 -30 5 -30 10 0 4 14 6
30 5 17 -1 30 -6 30 -10z m8567 -340 c-2 -18 -4 -6 -4 27 0 33 2 48 4 33 2
-15 2 -42 0 -60z m-8836 -40 c-3 -72 -6 -91 -10 -63 -7 49 -2 165 7 165 4 0 5
-46 3 -102z m-4 -290 c-2 -29 -3 -6 -3 52 0 58 1 81 3 53 2 -29 2 -77 0 -105z
m-77 -17 c0 -5 3 -23 6 -40 6 -27 4 -31 -15 -31 -23 0 -24 3 -15 49 6 28 24
45 24 22z m77 -283 c-2 -18 -4 -4 -4 32 0 36 2 50 4 33 2 -18 2 -48 0 -65z
m909 34 c-11 -10 -15 4 -8 28 l7 25 3 -23 c2 -13 1 -26 -2 -30z m-579 -654
c-3 -7 -5 -2 -5 12 0 14 2 19 5 13 2 -7 2 -19 0 -25z m-252 -95 c-7 -29 -25
-56 -21 -32 4 26 17 59 23 59 3 0 2 -12 -2 -27z m57 -54 c-22 -23 -37 -30 -58
-27 -27 3 -26 5 26 30 30 15 57 27 59 27 2 1 -10 -13 -27 -30z m-23 -81 c-1
-13 2 -31 6 -40 4 -11 3 -18 -4 -18 -16 0 -24 26 -17 55 8 31 16 33 15 3z
m8656 2 c3 -5 1 -10 -4 -10 -6 0 -11 5 -11 10 0 6 2 10 4 10 3 0 8 -4 11 -10z
m-8608 -46 c-3 -3 -12 -4 -19 -1 -8 3 -5 6 6 6 11 1 17 -2 13 -5z m231 -87
c-1 -36 -2 -42 -5 -20 -3 19 -12 37 -24 43 -24 13 -25 27 -1 33 28 6 32 -1 30
-56z m-174 37 c10 -26 7 -34 -14 -34 -11 0 -20 4 -20 9 0 17 12 41 20 41 4 0
11 -7 14 -16z m3846 -100 l0 -45 55 6 55 7 0 -52 0 -53 40 7 40 6 0 -38 c0
-48 14 -62 55 -55 l32 5 6 -62 c4 -35 7 -229 7 -433 l0 -369 -24 6 c-13 3 -31
9 -40 12 -13 5 -16 -2 -16 -40 0 -50 -8 -55 -50 -31 -35 20 -40 19 -40 -9 0
-20 -4 -23 -21 -19 -20 6 -21 3 -15 -36 l5 -41 -49 0 -50 0 0 -55 0 -54 -306
-3 -306 -3 1 215 c1 118 -1 428 -5 688 -6 399 -5 472 7 473 8 1 145 5 304 8
160 4 296 8 303 9 8 1 12 -13 12 -44z m-2870 -12 l0 -47 46 3 45 4 -6 -59 c-7
-58 -7 -60 16 -59 22 1 24 -4 27 -51 l3 -52 37 -3 37 -3 5 -55 c5 -53 6 -55
35 -55 32 0 32 -1 34 -68 1 -35 3 -37 26 -31 15 4 32 1 40 -6 13 -11 15 -4 15
49 l0 61 41 0 42 0 -6 69 -6 70 30 -11 c49 -17 61 -6 53 52 l-7 50 42 0 41 0
0 50 c0 49 1 50 30 50 29 0 30 2 30 45 l0 45 159 0 c156 0 159 0 165 -22 3
-13 6 -34 6 -47 0 -19 4 -23 25 -19 23 5 25 2 26 -31 7 -248 7 -821 -1 -826
-6 -3 -10 6 -11 22 l-1 28 -8 -25 c-4 -14 -9 -20 -10 -15 -1 6 -5 1 -10 -10
-5 -11 -9 -116 -9 -233 l-1 -212 -186 2 -185 3 -4 294 c-3 162 -6 295 -7 296
-2 2 -19 5 -38 6 -38 4 -38 5 -25 -70 l7 -43 -42 4 -42 4 5 -46 c3 -25 7 -52
9 -60 2 -11 -4 -14 -22 -11 -57 8 -55 10 -52 -51 l4 -58 -79 0 c-43 0 -88 -3
-100 -6 -22 -6 -23 -4 -20 57 l2 64 -39 -4 -39 -3 7 39 c4 21 14 43 22 49 22
17 17 22 -26 29 l-41 7 2 49 c2 27 0 52 -4 56 -4 3 -7 0 -7 -7 0 -9 -9 -5 -25
10 -14 13 -27 21 -30 18 -3 -2 -8 -143 -12 -311 l-6 -307 -180 0 -179 0 4 80
c2 44 0 80 -4 80 -5 0 -8 22 -8 50 0 54 3 56 80 62 19 2 36 9 36 16 1 6 2 24
3 38 1 22 5 25 29 22 15 -2 26 -8 25 -15 -2 -7 1 -13 6 -13 14 0 22 99 13 155
-6 36 -12 49 -23 46 -8 -2 -22 -6 -31 -8 -15 -5 -18 1 -18 35 l0 41 -50 -6
c-46 -5 -50 -4 -59 19 -6 15 -8 158 -7 344 2 176 0 342 -4 371 l-7 52 36 4
c20 2 102 4 184 5 l147 2 0 -48z m1835 -29 c9 -117 9 -118 24 -115 8 2 26 0
41 -3 l28 -6 -5 -101 c-6 -99 -6 -100 15 -89 45 24 52 16 52 -59 0 -54 4 -71
17 -78 13 -8 16 -22 14 -72 -2 -47 1 -64 14 -74 10 -7 18 -33 22 -69 6 -55 7
-57 39 -63 l34 -6 2 -214 c1 -118 3 -247 3 -286 l0 -73 -155 0 -155 0 -5 125
c-3 69 -7 119 -8 113 -4 -24 -22 -13 -22 12 0 23 -3 25 -52 25 -29 0 -110 3
-180 7 l-128 6 0 -147 0 -147 -152 3 -153 3 0 292 0 292 36 -5 c47 -8 52 6 49
130 -4 130 -5 126 34 126 l33 0 7 61 c3 34 6 95 6 135 l0 72 40 -5 40 -6 0 78
c0 69 2 77 18 72 49 -14 47 -16 50 66 l3 77 194 0 193 0 7 -77z m1725 17 c0
-57 1 -60 19 -50 11 5 28 10 38 10 17 0 18 -7 15 -70 l-4 -70 27 10 c45 17 46
15 39 -79 l-7 -89 46 5 45 5 -5 -59 -5 -60 32 5 32 5 -3 -47 c-4 -46 -4 -46
28 -46 17 0 34 -6 36 -12 3 -7 6 123 6 288 l1 301 46 7 c26 3 98 6 160 6 l114
0 -2 -692 -3 -692 -150 3 c-82 1 -151 4 -152 5 -1 1 -5 58 -9 128 l-7 126 -47
-5 c-46 -5 -47 -4 -53 27 -4 18 -4 43 -1 56 5 20 2 24 -15 24 -12 0 -21 -5
-21 -12 0 -9 -3 -9 -11 -1 -7 7 -7 27 0 64 5 30 6 58 2 62 -13 13 -61 -11 -70
-35 -8 -21 -8 -21 -15 5 -3 15 -4 57 0 92 4 36 4 65 1 65 -13 0 -68 -61 -79
-87 -7 -18 -13 -143 -17 -348 -3 -176 -10 -326 -15 -334 -7 -11 -32 -13 -125
-8 -64 3 -127 9 -140 13 -21 6 -23 10 -16 48 4 23 9 367 11 766 2 399 4 726 4
728 0 1 61 2 135 2 l135 0 0 -60z m1607 -7 c-4 -38 -7 -114 -7 -170 l0 -103
-215 0 -215 0 0 -89 c0 -49 -3 -96 -6 -105 -5 -14 14 -16 172 -16 99 0 188 -3
199 -6 19 -5 20 -12 17 -132 -2 -70 -8 -131 -12 -136 -5 -5 -93 -11 -195 -14
l-185 -5 0 -98 0 -99 214 0 c162 0 215 -3 218 -12 2 -7 2 -84 0 -170 l-4 -158
-399 0 -399 0 0 690 0 690 411 0 412 0 -6 -67z m785 30 l3 -38 48 3 47 4 0
-46 0 -46 39 0 c22 0 42 -4 45 -8 5 -8 -9 -146 -19 -189 -6 -27 -30 -30 -40
-5 -7 14 -9 13 -14 -8 -6 -22 -13 -25 -55 -28 -40 -3 -52 1 -73 22 -31 31 -52
33 -87 5 l-26 -20 0 41 c0 34 -3 41 -16 36 -9 -3 -49 -6 -90 -6 l-74 0 0 -55
c0 -48 2 -55 20 -55 18 0 20 -4 14 -42 -4 -24 -7 -47 -8 -53 0 -5 19 -11 44
-13 69 -4 88 -10 95 -32 4 -12 15 -20 28 -20 12 0 28 -9 35 -20 9 -15 23 -20
57 -20 l45 0 0 -43 0 -44 43 1 42 1 3 -42 c3 -43 3 -43 43 -43 l39 0 0 -200 0
-200 -44 0 -43 0 -7 -80 c-4 -44 -5 -84 -1 -90 3 -5 -3 -10 -15 -10 -17 0 -19
3 -10 19 29 56 -10 111 -53 74 -12 -10 -25 -22 -28 -27 -4 -4 -10 -3 -13 3
-14 23 -26 10 -26 -28 0 -22 -4 -42 -8 -45 -5 -3 -115 -2 -245 1 l-236 6 -3
45 -3 46 -61 -3 c-59 -2 -62 -1 -61 21 0 13 -4 70 -8 126 l-8 104 34 -4 34 -3
3 52 c2 41 7 53 23 58 28 9 54 -2 69 -29 7 -13 25 -26 40 -29 19 -4 32 -17 44
-41 l17 -36 107 -1 c59 -1 112 0 117 1 6 2 17 3 26 2 14 0 17 15 21 96 3 53 4
98 2 100 -1 2 -16 -3 -32 -12 -34 -17 -45 -6 -35 33 5 20 2 21 -90 21 -88 0
-97 2 -108 21 -9 18 -13 19 -21 8 -7 -10 -8 -3 -5 23 7 48 -8 62 -54 47 -19
-7 -40 -16 -46 -22 -18 -13 -17 14 2 60 22 53 20 64 -11 53 -30 -12 -74 -13
-74 -2 0 4 7 32 15 62 8 30 13 55 11 57 -1 2 -17 -2 -35 -8 -18 -6 -35 -8 -39
-4 -9 9 -9 290 1 337 7 35 9 36 37 28 36 -10 40 -6 40 47 l0 43 60 0 c63 0 66
3 51 44 -7 17 -7 26 2 30 7 2 116 5 244 5 l232 1 3 -37z m918 -1 l0 -38 48 0
47 1 3 -42 3 -43 45 0 44 0 0 -44 c0 -24 -3 -58 -6 -75 -6 -26 -11 -31 -35
-31 -26 0 -29 -4 -29 -31 0 -17 -5 -39 -11 -51 -9 -17 -17 -19 -47 -13 -20 4
-49 13 -64 21 -22 11 -33 12 -49 4 -31 -17 -49 -5 -49 32 l0 33 -85 3 -85 2 0
-65 c0 -63 1 -65 25 -65 26 0 26 -1 19 -57 l-6 -58 97 2 97 1 -6 -38 -6 -39
57 -3 58 -3 -1 -42 c-1 -38 2 -42 28 -47 25 -5 28 -10 28 -43 l1 -38 18 23
c45 53 49 33 43 -226 l-5 -202 -33 0 c-33 0 -34 -1 -34 -41 l0 -42 -74 7 -74
7 -7 -138 c-4 -82 -12 -141 -18 -145 -6 -4 -10 -26 -8 -49 l3 -42 -48 7 c-26
3 -69 6 -96 6 l-49 0 3 33 c3 29 7 33 43 38 l40 6 -37 2 c-64 2 -65 3 -60 91
l5 80 -113 0 -112 0 4 43 3 42 -40 1 c-22 0 -53 6 -68 12 -16 7 -33 12 -39 12
-7 0 -8 14 -4 38 3 20 6 77 6 125 0 82 2 89 21 94 17 5 20 11 15 38 -6 32 -6
32 40 39 80 11 84 10 78 -23 -5 -24 -2 -29 18 -34 12 -4 36 -7 51 -7 20 0 30
-6 34 -19 4 -16 17 -20 81 -26 43 -3 91 -7 109 -10 30 -3 32 -2 38 38 10 59 5
184 -8 187 -19 6 -191 29 -213 30 -39 0 -47 18 -38 77 l6 44 -28 -7 c-16 -4
-40 -11 -52 -16 -24 -8 -24 -8 -17 43 7 51 7 52 -16 45 -13 -3 -37 -9 -53 -13
l-29 -6 6 76 5 77 -40 0 -40 0 6 83 c4 45 7 105 8 134 l1 52 36 3 c35 3 36 4
35 46 l-1 44 39 -4 c38 -4 39 -3 36 23 -4 27 -2 28 55 34 l59 7 -5 34 -6 34
200 0 199 0 0 -38z m760 -8 c0 -12 -6 -15 -22 -10 -13 3 -32 6 -43 7 -14 1
-10 4 10 9 47 12 55 11 55 -6z m-80 -80 c0 -8 -5 -12 -10 -9 -6 4 -8 11 -5 16
9 14 15 11 15 -7z m-8143 -256 c-3 -8 -6 -5 -6 6 -1 11 2 17 5 13 3 -3 4 -12
1 -19z m6530 -104 c-3 -3 -12 -4 -19 -1 -8 3 -5 6 6 6 11 1 17 -2 13 -5z
m1021 -1 c-10 -2 -26 -2 -35 0 -10 3 -2 5 17 5 19 0 27 -2 18 -5z m-7561 -55
c-3 -8 -6 -5 -6 6 -1 11 2 17 5 13 3 -3 4 -12 1 -19z m7791 -25 c2 -7 -1 -13
-8 -13 -6 0 -8 5 -4 12 5 8 2 9 -9 5 -10 -3 -17 -2 -17 4 0 14 32 7 38 -8z
m-1883 -73 c-3 -5 -13 -10 -21 -10 -8 0 -14 5 -14 10 0 6 9 10 21 10 11 0 17
-4 14 -10z m55 -66 c-5 -19 -11 -38 -14 -41 -12 -12 -16 25 -7 50 15 40 30 33
21 -9z m1834 18 c3 -5 -8 -6 -25 -4 -16 2 -29 6 -29 8 0 8 49 4 54 -4z m-1747
-89 c-9 -9 -20 -12 -28 -8 -9 6 -8 11 6 21 23 17 42 6 22 -13z m918 -13 c17
-7 14 -9 -13 -9 -20 -1 -31 3 -27 9 7 12 13 12 40 0z m-5335 -402 l-1 -213
-20 39 c-18 33 -20 51 -15 125 3 47 10 101 15 119 12 40 11 32 11 92 0 28 2
50 5 50 3 0 5 -96 5 -212z m-540 62 c0 -13 -11 -13 -30 0 -12 8 -11 10 8 10
12 0 22 -4 22 -10z m2577 -147 c-3 -10 -5 -2 -5 17 0 19 2 27 5 18 2 -10 2
-26 0 -35z m-3560 -220 c-3 -10 -5 -4 -5 12 0 17 2 24 5 18 2 -7 2 -21 0 -30z
m7508 -53 c11 -5 14 -9 8 -9 -7 -1 -13 -11 -13 -23 0 -19 2 -20 10 -8 8 13 10
12 10 -3 0 -20 17 -40 40 -50 11 -4 11 -6 -3 -6 -17 -1 -18 -8 -15 -62 3 -56
2 -60 -17 -55 -11 3 -33 6 -50 6 -16 0 -25 4 -20 8 16 11 19 74 3 83 -10 7 -8
9 7 10 11 1 26 1 33 0 8 -1 4 7 -7 18 -14 14 -21 34 -21 61 0 42 2 44 35 30z
m-623 -124 c60 21 79 17 30 -7 -25 -12 -51 -19 -65 -15 -20 5 -22 10 -19 47 4
33 0 44 -14 52 -17 10 -17 11 1 17 18 6 20 2 23 -51 l3 -58 41 15z m-5885 88
c-3 -3 -12 -4 -19 -1 -8 3 -5 6 6 6 11 1 17 -2 13 -5z m2976 -9 c19 -8 37 -21
40 -30 6 -13 -7 -15 -83 -15 -50 0 -90 2 -90 5 0 2 5 16 12 30 9 20 18 25 48
25 21 0 53 -7 73 -15z m-3929 -39 c-3 -8 0 -17 6 -21 17 -11 -7 -24 -31 -18
-25 7 -26 50 -1 56 23 5 32 -1 26 -17z m968 -38 c-8 -8 -9 -4 -5 13 4 13 8 18
11 10 2 -7 -1 -18 -6 -23z m6623 22 c4 -6 -5 -10 -19 -10 -14 0 -26 5 -26 10
0 6 9 10 19 10 11 0 23 -4 26 -10z m-6644 -65 c5 4 6 -1 3 -9 -3 -9 -17 -16
-30 -16 -25 0 -28 7 -18 34 5 14 8 14 21 1 8 -9 19 -13 24 -10z m5959 -14 c0
-17 5 -33 10 -36 6 -3 10 -15 10 -26 0 -15 -7 -19 -32 -19 -28 1 -30 2 -15 11
9 5 22 7 27 4 6 -3 10 -2 10 4 0 5 -4 11 -9 13 -14 5 -25 78 -12 78 6 0 11
-13 11 -29z m-63 -53 c-3 -8 -6 -5 -6 6 -1 11 2 17 5 13 3 -3 4 -12 1 -19z
m-3180 -4 c-3 -3 -12 -4 -19 -1 -8 3 -5 6 6 6 11 1 17 -2 13 -5z m3666 -55
c22 0 21 -18 -3 -47 -23 -27 -114 -42 -146 -24 -16 9 -9 12 36 13 74 3 77 3
86 12 4 4 -20 7 -53 7 -33 0 -76 7 -94 15 l-34 14 45 2 45 2 -45 8 c-29 5 -12
6 50 3 52 -3 103 -5 113 -5z"/>
<path d="M4458 7954 l-3 -147 97 7 c53 3 120 11 148 18 l52 12 -5 120 -5 121
-49 7 c-26 3 -89 7 -140 7 l-92 1 -3 -146z"/>
<path d="M5523 8313 c-50 -43 -33 -82 45 -101 33 -8 42 -7 42 3 0 7 9 15 21
18 17 5 20 12 17 49 l-3 43 -51 3 c-37 2 -56 -2 -71 -15z"/>
<path d="M5788 8033 c-3 -26 -7 -28 -51 -31 l-49 -3 7 -50 7 -49 -42 0 -42 0
3 -245 4 -244 22 5 c12 3 31 3 43 -1 19 -6 21 -13 18 -51 l-3 -44 137 0 138 0
0 50 c0 43 3 50 20 50 10 0 30 5 44 11 23 11 24 14 11 33 -8 11 -15 39 -15 62
0 40 1 42 38 48 20 3 64 6 97 6 58 1 95 15 95 38 0 16 28 22 55 12 l25 -10 0
103 0 103 -32 2 c-18 2 -34 7 -36 12 -5 13 -64 27 -149 35 l-73 7 0 43 c0 24
6 47 13 52 7 5 -7 10 -38 13 -43 4 -50 8 -53 28 -4 28 -6 29 -109 37 l-82 6
-3 -28z"/>
<path d="M5708 7213 c12 -2 30 -2 40 0 9 3 -1 5 -23 4 -22 0 -30 -2 -17 -4z"/>
<path d="M3205 8151 c-3 -6 0 -11 9 -11 8 0 17 -6 20 -12 3 -7 5 -4 3 6 -2 22
-22 32 -32 17z"/>
<path d="M3170 8125 c0 -33 15 -33 16 0 1 14 -2 25 -7 25 -5 0 -9 -11 -9 -25z"/>
<path d="M3211 6959 c-23 -25 -19 -39 9 -39 27 0 44 34 26 49 -11 10 -19 7
-35 -10z"/>
<path d="M3556 6921 c-3 -5 1 -11 9 -15 8 -3 15 -1 15 4 0 13 -18 22 -24 11z"/>
<path d="M3525 6910 c-8 -13 -1 -24 14 -19 6 3 7 10 2 18 -6 10 -10 10 -16 1z"/>
<path d="M6684 7418 c3 -13 6 -36 6 -53 1 -51 9 -57 74 -44 l57 12 -3 51 -3
51 -69 3 c-67 3 -68 3 -62 -20z"/>
<path d="M6705 7030 c-9 -42 -6 -45 47 -45 43 0 48 2 48 23 0 17 -7 24 -30 29
-17 3 -33 10 -36 14 -10 17 -23 9 -29 -21z"/>
<path d="M6966 6941 c-3 -5 3 -11 14 -14 13 -3 20 0 20 9 0 15 -26 19 -34 5z"/>
<path d="M2807 8178 c-3 -18 -2 -55 3 -83 7 -47 7 -45 9 33 1 86 -3 104 -12
50z"/>
<path d="M2806 7825 c-4 -58 -3 -103 3 -113 7 -12 10 16 11 96 0 61 -2 112 -4
112 -1 0 -6 -43 -10 -95z"/>
<path d="M2803 7240 c0 -25 2 -35 4 -22 2 12 2 32 0 45 -2 12 -4 2 -4 -23z"/>
<path d="M4868 6582 l-88 -3 0 -49 0 -50 -35 0 c-35 0 -35 -1 -35 -42 0 -24
-3 -80 -6 -124 l-7 -82 44 5 45 5 -4 -40 -4 -40 89 -4 c48 -2 93 -2 98 -1 11
4 9 246 -3 363 l-7 65 -87 -3z"/>
<path d="M2030 5780 c-27 -27 -26 -65 2 -84 46 -32 108 -7 108 43 0 56 -70 81
-110 41z"/>
<path d="M1171 5564 c0 -11 3 -14 6 -6 3 7 2 16 -1 19 -3 4 -6 -2 -5 -13z"/>
<path d="M1090 5154 c-8 -1 -50 -6 -93 -9 l-79 -7 4 -49 3 -49 -48 0 -49 0 6
-57 c3 -32 8 -105 12 -161 6 -98 7 -103 27 -98 14 3 29 -4 48 -25 16 -18 37
-29 53 -29 22 0 28 -6 33 -31 l6 -32 66 7 c36 3 85 6 109 6 l42 0 0 44 c0 49
8 56 58 48 l32 -5 1 119 c0 66 1 138 2 162 l2 42 -50 0 -50 0 3 54 4 53 -51 7
c-28 4 -57 8 -64 10 -6 2 -19 2 -27 0z"/>
<path d="M1340 4240 c-53 -53 14 -136 75 -96 19 13 25 25 25 54 0 21 -5 43
-12 50 -19 19 -66 14 -88 -8z"/>
<path d="M3698 5518 c-43 -13 -52 -36 -37 -92 18 -64 48 -86 118 -86 51 0 64
4 86 25 21 22 25 35 25 80 0 46 -3 55 -18 55 -10 0 -23 5 -28 10 -16 16 -104
20 -146 8z"/>
<path d="M3813 4513 c9 -2 23 -2 30 0 6 3 -1 5 -18 5 -16 0 -22 -2 -12 -5z"/>
<path d="M6905 5280 c-3 -6 1 -7 9 -4 18 7 21 14 7 14 -6 0 -13 -4 -16 -10z"/>
<path d="M4266 5535 c-50 -75 26 -150 118 -115 17 6 28 21 35 46 17 63 -13 94
-92 94 -36 0 -48 -5 -61 -25z"/>
<path d="M5625 5578 c-33 -18 -45 -40 -45 -85 l0 -43 65 0 c61 0 66 2 75 26 6
14 10 42 10 63 0 32 -4 40 -22 45 -33 9 -60 7 -83 -6z"/>
<path d="M5532 4898 l3 -53 48 0 c27 0 50 2 52 5 1 3 6 26 9 53 l7 47 -61 0
-61 0 3 -52z"/>
<path d="M5723 4280 c-17 -7 -23 -18 -23 -38 0 -52 57 -74 88 -34 17 22 16 72
-2 72 -8 0 -20 2 -28 4 -7 3 -23 1 -35 -4z"/>
<path d="M8385 5588 c-33 -18 -45 -40 -45 -85 l0 -43 65 0 c61 0 66 2 75 26 6
14 10 42 10 63 0 32 -4 40 -22 45 -33 9 -60 7 -83 -6z"/>
<path d="M8292 4908 l3 -53 48 0 c27 0 50 2 52 5 1 3 6 26 9 53 l7 47 -61 0
-61 0 3 -52z"/>
<path d="M8483 4290 c-17 -7 -23 -18 -23 -38 0 -52 57 -74 88 -34 17 22 16 72
-2 72 -8 0 -20 2 -28 4 -7 3 -23 1 -35 -4z"/>
<path d="M4390 2968 l0 -318 23 0 c13 0 59 -3 102 -7 l77 -6 -3 56 -4 57 44 0
44 0 -6 122 c-4 66 -7 173 -7 237 0 64 -4 111 -8 104 -4 -6 -20 -15 -35 -18
-25 -7 -27 -5 -27 25 0 17 4 40 10 50 9 17 4 18 -100 17 l-110 -2 0 -317z"/>
<path d="M4175 3103 c-29 -7 -35 -22 -33 -75 l1 -48 46 0 c62 1 81 17 81 69 0
35 -4 43 -26 51 -27 10 -36 11 -69 3z"/>
<path d="M2802 3260 c0 -55 1 -61 10 -37 6 18 7 40 0 65 -9 35 -10 33 -10 -28z"/>
<path d="M2575 2740 c-37 -15 -47 -36 -41 -87 3 -27 7 -56 8 -65 1 -11 11 -18
24 -18 12 0 35 -3 51 -6 25 -5 31 -2 36 15 4 15 12 20 29 19 21 -3 23 1 26 42
2 37 -2 50 -23 73 -14 15 -34 27 -45 27 -10 0 -24 2 -32 4 -7 3 -22 1 -33 -4z"/>
<path d="M3378 3133 c-1 -27 -1 -67 0 -90 3 -41 2 -42 -33 -49 l-35 -6 0 -61
0 -60 68 6 c37 4 88 7 115 7 44 0 47 1 48 28 0 15 4 36 8 47 7 17 3 21 -33 31
-40 10 -41 11 -37 50 8 83 10 79 -40 84 -44 5 -46 7 -43 33 1 15 -2 27 -7 27
-5 0 -10 -21 -11 -47z"/>
<path d="M3666 2745 c-17 -18 -29 -83 -24 -140 l3 -40 47 -3 c33 -2 56 2 75
15 15 11 37 24 48 29 22 12 30 50 21 100 -5 25 -14 35 -38 43 -45 16 -114 14
-132 -4z"/>
<path d="M5860 2590 c0 -38 2 -40 30 -40 27 0 30 3 30 30 0 19 -7 33 -19 40
-33 17 -41 11 -41 -30z"/>
<path d="M6350 8620 c0 -11 48 -26 69 -21 8 1 20 9 28 17 13 12 7 14 -41 14
-31 0 -56 -4 -56 -10z"/>
<path d="M5273 8613 c-12 -2 -27 -11 -33 -19 -10 -11 -8 -14 9 -14 27 0 61 17
61 30 0 6 -3 9 -7 9 -5 -1 -18 -4 -30 -6z"/>
<path d="M2892 8570 c-10 -17 -10 -20 3 -20 8 0 15 9 15 20 0 11 -1 20 -3 20
-1 0 -8 -9 -15 -20z"/>
<path d="M2266 8351 c-3 -5 1 -14 8 -20 12 -10 13 -8 9 8 -6 23 -9 25 -17 12z"/>
<path d="M2281 8284 c0 -11 3 -14 6 -6 3 7 2 16 -1 19 -3 4 -6 -2 -5 -13z"/>
<path d="M1506 8162 c-3 -6 -1 -14 5 -17 15 -10 25 3 12 16 -7 7 -13 7 -17 1z"/>
<path d="M1373 7810 c0 -41 2 -58 4 -37 2 20 2 54 0 75 -2 20 -4 3 -4 -38z"/>
<path d="M1118 7533 c0 -10 0 -26 0 -36 1 -11 -6 -21 -18 -24 -28 -7 -25 -23
5 -23 32 0 34 -34 4 -71 -17 -22 -26 -25 -57 -20 -33 6 -37 10 -43 43 -3 21
-1 42 5 48 7 7 6 10 -2 10 -7 0 -13 16 -14 38 -1 35 -1 36 -5 5 -5 -41 -21
-53 -80 -61 l-48 -7 -6 -195 c-4 -107 -3 -205 2 -217 5 -13 17 -23 28 -23 11
0 23 -4 26 -10 3 -5 19 -10 35 -10 16 0 40 -4 55 -10 21 -8 36 -4 85 20 48 24
60 36 70 66 7 19 25 47 41 61 51 46 69 101 69 214 0 100 -1 103 -29 128 -15
14 -32 36 -36 49 -11 37 -84 58 -87 25z"/>
<path d="M9211 7540 c-37 -9 -51 -24 -51 -56 0 -22 -24 -39 -40 -29 -5 3 -20
1 -33 -4 -38 -15 -53 -98 -40 -214 10 -84 13 -92 68 -173 81 -120 105 -127
150 -48 24 42 31 43 118 28 l37 -6 0 183 c0 200 -4 229 -29 229 -23 -1 -59
-31 -63 -55 -2 -15 -15 -22 -51 -29 -45 -8 -50 -7 -78 20 -16 15 -29 36 -29
46 0 16 9 18 70 18 l70 0 0 44 c0 37 -4 45 -22 50 -27 7 -32 7 -77 -4z"/>
<path d="M8807 7314 c-13 -13 -7 -24 14 -24 11 0 19 5 17 12 -5 14 -22 21 -31
12z"/>
<path d="M9632 6450 c0 -14 2 -19 5 -12 2 6 2 18 0 25 -3 6 -5 1 -5 -13z"/>
<path d="M9720 6381 c0 -6 -9 -11 -20 -11 -11 0 -20 -5 -20 -11 0 -6 14 -9 33
-7 32 3 45 27 20 36 -7 2 -13 -1 -13 -7z"/>
<path d="M9580 4891 c0 -6 5 -13 10 -16 6 -3 10 1 10 9 0 9 -4 16 -10 16 -5 0
-10 -4 -10 -9z"/>
</g>
</svg>
